<svg width="132" height="23" viewBox="0 0 132 23" fill="none" xmlns="http://www.w3.org/2000/svg">
<path d="M49.1784 16.4966H43.7993L42.9817 18.9824H38.5491L44.0789 3.7431H48.9418L54.4501 18.9824H49.996L49.1784 16.4966ZM48.1242 13.2542L46.4889 8.32571L44.875 13.2542H48.1242Z" fill="#111827"/>
<path d="M63.5055 18.9824L60.4931 13.3622H60.0413V18.9824H55.824V3.7431H62.4728C63.692 3.7431 64.7247 3.95927 65.5711 4.39159C66.4175 4.8095 67.0559 5.39313 67.4862 6.14249C67.9166 6.87743 68.1316 7.70607 68.1316 8.62835C68.1316 9.66591 67.8448 10.581 67.2709 11.3736C66.7116 12.1518 65.8867 12.7066 64.7965 13.038L68.2176 18.9824H63.5055ZM60.0413 10.4657H62.1284C62.7023 10.4657 63.1326 10.3288 63.4194 10.055C63.7063 9.7812 63.8498 9.38491 63.8498 8.86611C63.8498 8.37615 63.6992 7.99426 63.3979 7.72046C63.1111 7.43225 62.6878 7.28814 62.1284 7.28814H60.0413V10.4657Z" fill="#111827"/>
<path d="M69.5325 11.3304C69.5325 9.83169 69.8408 8.4987 70.4577 7.33144C71.0888 6.14975 71.9782 5.23469 73.1259 4.5862C74.2734 3.92331 75.5931 3.59186 77.0849 3.59186C78.9783 3.59186 80.5706 4.10344 81.8616 5.12659C83.1526 6.13535 83.9847 7.51156 84.3576 9.25526H79.8175C79.5449 8.67885 79.1648 8.2393 78.6772 7.93669C78.2039 7.63407 77.6515 7.48274 77.0204 7.48274C76.045 7.48274 75.2631 7.83582 74.675 8.54194C74.1011 9.23364 73.8143 10.1631 73.8143 11.3304C73.8143 12.5121 74.1011 13.456 74.675 14.1621C75.2631 14.8538 76.045 15.1997 77.0204 15.1997C77.6515 15.1997 78.2039 15.0484 78.6772 14.7457C79.1648 14.4431 79.5449 14.0036 79.8175 13.4272H84.3576C83.9847 15.1709 83.1526 16.5543 81.8616 17.5774C80.5706 18.5862 78.9783 19.0906 77.0849 19.0906C75.5931 19.0906 74.2734 18.7663 73.1259 18.1178C71.9782 17.455 71.0888 16.5399 70.4577 15.3726C69.8408 14.1909 69.5325 12.8435 69.5325 11.3304Z" fill="#111827"/>
<path d="M95.9508 16.4966H90.5716L89.7539 18.9824H85.3215L90.8514 3.7431H95.7141L101.222 18.9824H96.7685L95.9508 16.4966ZM94.8964 13.2542L93.2611 8.32571L91.6475 13.2542H94.8964Z" fill="#111827"/>
<path d="M108.599 3.7431C110.192 3.7431 111.583 4.06736 112.774 4.71582C113.979 5.34989 114.904 6.24336 115.549 7.39623C116.195 8.54908 116.518 9.86767 116.518 11.352C116.518 12.8219 116.188 14.1332 115.528 15.2861C114.882 16.4389 113.957 17.3468 112.752 18.0097C111.562 18.6582 110.177 18.9824 108.599 18.9824H102.596V3.7431H108.599ZM108.277 15.2429C109.51 15.2429 110.478 14.9042 111.181 14.2269C111.884 13.5496 112.236 12.5913 112.236 11.352C112.236 10.0982 111.884 9.13271 111.181 8.4554C110.478 7.7637 109.51 7.41785 108.277 7.41785H106.814V15.2429H108.277Z" fill="#111827"/>
<path d="M122.635 7.13683V9.62267H127.476V12.8435H122.635V15.5887H128.122V18.9824H118.418V3.7431H128.122V7.13683H122.635Z" fill="#111827"/>
<path fill-rule="evenodd" clip-rule="evenodd" d="M31.2959 10.2511C31.3054 10.1392 31.3102 10.0267 31.3102 9.91358C31.3102 5.82647 25.1119 2.51318 17.4661 2.51318C9.82025 2.51318 3.62207 5.82647 3.62207 9.91358C3.62207 10.0267 3.62682 10.1392 3.63622 10.2511C3.62682 10.3629 3.62207 10.4754 3.62207 10.5885C3.62207 10.7016 3.62682 10.8142 3.63622 10.926C3.62682 11.0379 3.62207 11.1504 3.62207 11.2635C3.62207 11.3766 3.62682 11.4891 3.63622 11.601C3.62682 11.7128 3.62207 11.8254 3.62207 11.9384C3.62207 12.0516 3.62682 12.1641 3.63622 12.2759C3.62682 12.3878 3.62207 12.5003 3.62207 12.6134C3.62207 12.7265 3.62682 12.839 3.63622 12.9509C3.62682 13.0627 3.62207 13.1752 3.62207 13.2884C3.62207 13.4015 3.62682 13.514 3.63622 13.6258C3.62682 13.7377 3.62207 13.8502 3.62207 13.9633C3.62207 14.0764 3.62682 14.1889 3.63622 14.3008C3.62682 14.4127 3.62207 14.5252 3.62207 14.6383C3.62207 18.7254 9.82025 22.0387 17.4661 22.0387C25.1119 22.0387 31.3102 18.7254 31.3102 14.6383C31.3102 14.5252 31.3054 14.4127 31.2959 14.3008C31.3054 14.1889 31.3102 14.0764 31.3102 13.9633C31.3102 13.8502 31.3054 13.7377 31.2959 13.6258C31.3054 13.514 31.3102 13.4015 31.3102 13.2884C31.3102 13.1752 31.3054 13.0627 31.2959 12.9509C31.3054 12.839 31.3102 12.7265 31.3102 12.6134C31.3102 12.5003 31.3054 12.3878 31.2959 12.2759C31.3054 12.1641 31.3102 12.0516 31.3102 11.9384C31.3102 11.8254 31.3054 11.7128 31.2959 11.601C31.3054 11.4891 31.3102 11.3766 31.3102 11.2635C31.3102 11.1504 31.3054 11.0379 31.2959 10.926C31.3054 10.8142 31.3102 10.7016 31.3102 10.5885C31.3102 10.4754 31.3054 10.3629 31.2959 10.2511Z" fill="#111827"/>
<path d="M31.0838 9.92065C31.0838 11.8423 29.6244 13.6342 27.1484 14.9589C24.682 16.2786 21.2592 17.1017 17.4661 17.1017C13.6729 17.1017 10.25 16.2786 7.78365 14.9589C5.30771 13.6342 3.84839 11.8423 3.84839 9.92065C3.84839 7.99905 5.30771 6.20718 7.78365 4.88239C10.25 3.56271 13.6729 2.73956 17.4661 2.73956C21.2592 2.73956 24.682 3.56271 27.1484 4.88239C29.6244 6.20718 31.0838 7.99905 31.0838 9.92065Z" fill="white" stroke="#111827" stroke-width="0.452727"/>
<path fill-rule="evenodd" clip-rule="evenodd" d="M27.7759 6.45082C27.7829 6.36738 27.7865 6.28347 27.7865 6.1991C27.7865 3.15059 23.1658 0.67926 17.466 0.67926C11.7661 0.67926 7.14551 3.15059 7.14551 6.1991C7.14551 6.28347 7.14906 6.36738 7.15606 6.45082C7.14906 6.53426 7.14551 6.61818 7.14551 6.70255C7.14551 6.7869 7.14906 6.87083 7.15606 6.95425C7.14906 7.03769 7.14551 7.12161 7.14551 7.20598C7.14551 7.29035 7.14906 7.37426 7.15606 7.45771C7.14906 7.54115 7.14551 7.62506 7.14551 7.70943C7.14551 7.79378 7.14906 7.87769 7.15606 7.96113C7.14906 8.04457 7.14551 8.12849 7.14551 8.21286C7.14551 8.29723 7.14906 8.38115 7.15606 8.46459C7.14906 8.54803 7.14551 8.63194 7.14551 8.71629C7.14551 8.80066 7.14906 8.88457 7.15606 8.96801C7.14906 9.05146 7.14551 9.13537 7.14551 9.21974C7.14551 9.30409 7.14906 9.38803 7.15606 9.47144C7.14906 9.55488 7.14551 9.63882 7.14551 9.72317C7.14551 12.7717 11.7661 15.243 17.466 15.243C23.1658 15.243 27.7865 12.7717 27.7865 9.72317C27.7865 9.63882 27.7829 9.55488 27.7759 9.47144C27.7829 9.38803 27.7865 9.30409 27.7865 9.21974C27.7865 9.13537 27.7829 9.05146 27.7759 8.96801C27.7829 8.88457 27.7865 8.80066 27.7865 8.71629C27.7865 8.63194 27.7829 8.54803 27.7759 8.46459C27.7829 8.38115 27.7865 8.29723 27.7865 8.21286C27.7865 8.12849 27.7829 8.04457 27.7759 7.96113C27.7829 7.87769 27.7865 7.79378 27.7865 7.70943C27.7865 7.62506 27.7829 7.54115 27.7759 7.45771C27.7829 7.37426 27.7865 7.29035 27.7865 7.20598C27.7865 7.12161 27.7829 7.03769 27.7759 6.95425C27.7829 6.87083 27.7865 6.7869 27.7865 6.70255C27.7865 6.61818 27.7829 6.53426 27.7759 6.45082Z" fill="#111827"/>
<path d="M27.5601 6.19904C27.5601 7.59934 26.4952 8.91934 24.6569 9.90256C22.8282 10.8806 20.2862 11.4925 17.466 11.4925C14.6458 11.4925 12.1038 10.8806 10.275 9.90256C8.4367 8.91934 7.37183 7.59934 7.37183 6.19904C7.37183 4.79875 8.4367 3.47877 10.275 2.49555C12.1038 1.51745 14.6458 0.905579 17.466 0.905579C20.2862 0.905579 22.8282 1.51745 24.6569 2.49555C26.4952 3.47877 27.5601 4.79875 27.5601 6.19904Z" fill="white" stroke="#111827" stroke-width="0.452727"/>
<path d="M27.5601 9.59449C27.5601 10.9948 26.4952 12.3148 24.6569 13.298C22.8282 14.2761 20.2862 14.888 17.466 14.888C14.6458 14.888 12.1038 14.2761 10.275 13.298C8.4367 12.3148 7.37183 10.9948 7.37183 9.59449C7.37183 8.1942 8.4367 6.87422 10.275 5.891C12.1038 4.91289 14.6458 4.30103 17.466 4.30103C20.2862 4.30103 22.8282 4.91289 24.6569 5.891C26.4952 6.87422 27.5601 8.1942 27.5601 9.59449Z" fill="#111827" stroke="#111827" stroke-width="0.452727"/>
</svg>
