<svg width="42" height="42" viewBox="0 0 42 42" fill="none" xmlns="http://www.w3.org/2000/svg">
<path d="M1.54656 21.3076C14.4133 19.9141 27.6011 20.5837 40.3798 21.1303C40.5226 20.9991 40.6041 20.8142 40.6041 20.6206V1.34135C40.6114 0.943511 40.2357 0.600689 39.8383 0.656038C27.0393 2.3097 13.8609 1.61938 1.02391 0.827193C0.87774 0.958443 0.794225 1.14535 0.794225 1.34135V20.6206C0.787597 21.0158 1.1531 21.3483 1.54656 21.3076ZM2.17362 2.10951C14.5296 3.41583 26.9859 3.41651 39.2247 2.11019V19.8669C33.076 19.3308 26.8876 19.0627 20.6992 19.0627C14.5107 19.0627 8.32231 19.3308 2.17362 19.8669V2.10951Z" fill="#3669D9" stroke="#3669D9" stroke-width="1.3"/>
<path d="M24.4823 10.981C24.4829 10.4045 24.19 9.87746 23.6989 9.57201L19.4631 6.93749C18.4138 6.23896 16.8698 7.07637 16.9158 8.34555C16.9158 8.34551 16.9158 13.6078 16.9158 13.6078C16.8711 14.8747 18.4106 15.7156 19.4618 15.0168C19.4618 15.0169 23.6969 12.3891 23.6969 12.3891C24.1879 12.0843 24.4816 11.5579 24.4823 10.981ZM22.9695 11.2171L18.7343 13.8449C18.5202 13.9604 18.3129 13.8438 18.2952 13.6078C18.2952 13.6078 18.2952 8.34551 18.2952 8.34551C18.2952 8.2034 18.3861 8.13167 18.44 8.10136C18.5179 8.0575 18.6398 8.04379 18.7343 8.10878C18.7343 8.10877 22.9702 10.7433 22.9702 10.7433C23.156 10.8792 23.1514 11.0822 22.9695 11.2171Z" fill="#3669D9" stroke="#3669D9" stroke-width="1.3"/>
<path d="M37.728 31.9907H36.9225V28.1748C36.9225 26.2646 35.3612 24.7104 33.4423 24.7104H31.2695C30.1235 24.7104 29.1135 25.2718 28.479 26.1252C27.8445 25.2718 26.8344 24.7104 25.6879 24.7104H23.5158C22.3693 24.7104 21.3592 25.2718 20.7247 26.1253C20.0901 25.2718 19.08 24.7104 17.9335 24.7104H15.7614C14.615 24.7104 13.6049 25.2718 12.9703 26.1252C12.3358 25.2718 11.3258 24.7104 10.1798 24.7104H8.007C6.08811 24.7104 4.52686 26.2646 4.52686 28.1748V31.9907H3.72131C2.02805 31.9907 0.650002 33.3687 0.650002 35.0623V39.9602C0.650002 40.3411 0.958483 40.6499 1.3397 40.6499C5.21019 40.6459 33.2034 40.6513 40.1096 40.6499C40.4908 40.6499 40.7993 40.3411 40.7993 39.9603V35.0623C40.7993 33.3687 39.4213 31.9907 37.728 31.9907ZM31.2695 26.0898H33.4423C34.6008 26.0898 35.5431 27.025 35.5431 28.1748V31.9907H34.7382C33.7722 31.9907 32.9194 32.4478 32.3559 33.1471C31.7924 32.4478 30.9396 31.9907 29.9736 31.9907H29.1688V28.1748C29.1688 27.025 30.111 26.0898 31.2695 26.0898ZM23.5158 26.0898H25.6879C26.8464 26.0898 27.7893 27.025 27.7893 28.1748V31.9907H26.9838C26.0178 31.9907 25.1651 32.4478 24.6016 33.147C24.0381 32.4478 23.1855 31.9907 22.2199 31.9907H21.4143V28.1748C21.4143 27.025 22.3573 26.0898 23.5158 26.0898ZM15.7614 26.0898H17.9335C19.092 26.0898 20.035 27.025 20.035 28.1748V31.9907H19.2294C18.2638 31.9907 17.4113 32.4478 16.8478 33.147C16.2842 32.4478 15.4315 31.9907 14.4655 31.9907H13.66V28.1748C13.66 27.025 14.6029 26.0898 15.7614 26.0898ZM5.90625 28.1748C5.90625 27.025 6.84853 26.0898 8.007 26.0898H10.1798C11.3383 26.0898 12.2806 27.025 12.2806 28.1748V31.9907H11.4757C10.5097 31.9907 9.65695 32.4478 9.09342 33.1471C8.52988 32.4478 7.67714 31.9907 6.71113 31.9907H5.90626L5.90625 28.1748ZM2.0294 35.0623C2.0294 34.1291 2.78847 33.3701 3.72131 33.3701H6.71112C7.64464 33.3701 8.40371 34.1291 8.40371 35.0623V39.2706H2.02939L2.0294 35.0623ZM9.78311 35.0623C9.78311 34.1291 10.5422 33.3701 11.4757 33.3701H14.4655C15.399 33.3701 16.1581 34.1291 16.1581 35.0623V39.2706H9.78311V35.0623ZM17.5375 35.0623C17.5375 34.1291 18.2966 33.3701 19.2294 33.3701H22.2199C23.1527 33.3701 23.9118 34.1291 23.9118 35.0623V39.2706H17.5375L17.5375 35.0623ZM25.2912 35.0623C25.2912 34.1291 26.0503 33.3701 26.9838 33.3701H29.9736C30.9071 33.3701 31.6662 34.1291 31.6662 35.0623V39.2706H25.2912V35.0623ZM39.4199 39.2706H33.0456V35.0623C33.0456 34.1291 33.8047 33.3701 34.7382 33.3701H37.728C38.6609 33.3701 39.4199 34.1291 39.4199 35.0623L39.4199 39.2706Z" fill="#3669D9" stroke="#3669D9" stroke-width="1.3"/>
</svg>
