<svg width="40" height="40" viewBox="0 0 40 40" fill="none" xmlns="http://www.w3.org/2000/svg">
<path d="M21.6667 36.6666H8.33334C5.00001 36.6666 3.33334 34.9999 3.33334 31.6666V18.3333C3.33334 14.9999 5.00001 13.3333 8.33334 13.3333H16.6667V31.6666C16.6667 34.9999 18.3333 36.6666 21.6667 36.6666Z" stroke="#3669D9" stroke-width="2.5" stroke-miterlimit="10" stroke-linecap="round" stroke-linejoin="round"/>
<path d="M16.85 6.66675C16.7167 7.16675 16.6667 7.71675 16.6667 8.33341V13.3334H8.33334V10.0001C8.33334 8.16675 9.83334 6.66675 11.6667 6.66675H16.85Z" stroke="#3669D9" stroke-width="2.5" stroke-miterlimit="10" stroke-linecap="round" stroke-linejoin="round"/>
<path d="M23.3333 13.3333V21.6666" stroke="#3669D9" stroke-width="2.5" stroke-miterlimit="10" stroke-linecap="round" stroke-linejoin="round"/>
<path d="M30 13.3333V21.6666" stroke="#3669D9" stroke-width="2.5" stroke-miterlimit="10" stroke-linecap="round" stroke-linejoin="round"/>
<path d="M28.3333 28.3333H25C24.0833 28.3333 23.3333 29.0833 23.3333 29.9999V36.6666H30V29.9999C30 29.0833 29.25 28.3333 28.3333 28.3333Z" stroke="#3669D9" stroke-width="2.5" stroke-miterlimit="10" stroke-linecap="round" stroke-linejoin="round"/>
<path d="M10 21.6667V28.3334" stroke="#3669D9" stroke-width="2.5" stroke-miterlimit="10" stroke-linecap="round" stroke-linejoin="round"/>
<path d="M16.6667 31.6666V8.33325C16.6667 4.99992 18.3333 3.33325 21.6667 3.33325H31.6667C35 3.33325 36.6667 4.99992 36.6667 8.33325V31.6666C36.6667 34.9999 35 36.6666 31.6667 36.6666H21.6667C18.3333 36.6666 16.6667 34.9999 16.6667 31.6666Z" stroke="#3669D9" stroke-width="2.5" stroke-miterlimit="10" stroke-linecap="round" stroke-linejoin="round"/>
</svg>
