<svg width="40" height="40" viewBox="0 0 40 40" fill="none" xmlns="http://www.w3.org/2000/svg">
<path d="M3.33334 36.6667H36.6667" stroke="#3669D9" stroke-width="2.5" stroke-miterlimit="10" stroke-linecap="round" stroke-linejoin="round"/>
<path d="M4.91667 36.6668L5 16.6167C5 15.6001 5.48334 14.6335 6.28334 14.0002L17.95 4.9168C19.15 3.98346 20.8333 3.98346 22.05 4.9168L33.7167 13.9835C34.5333 14.6168 35 15.5834 35 16.6167V36.6668" stroke="#3669D9" stroke-width="2.5" stroke-miterlimit="10" stroke-linejoin="round"/>
<path d="M21.6667 28.3333H18.3333C16.95 28.3333 15.8333 29.4499 15.8333 30.8333V36.6666H24.1667V30.8333C24.1667 29.4499 23.05 28.3333 21.6667 28.3333Z" stroke="#3669D9" stroke-width="2.5" stroke-miterlimit="10" stroke-linejoin="round"/>
<path d="M15.8333 22.9166H12.5C11.5833 22.9166 10.8333 22.1666 10.8333 21.2499V18.7499C10.8333 17.8333 11.5833 17.0833 12.5 17.0833H15.8333C16.75 17.0833 17.5 17.8333 17.5 18.7499V21.2499C17.5 22.1666 16.75 22.9166 15.8333 22.9166Z" stroke="#3669D9" stroke-width="2.5" stroke-miterlimit="10" stroke-linejoin="round"/>
<path d="M27.5 22.9166H24.1667C23.25 22.9166 22.5 22.1666 22.5 21.2499V18.7499C22.5 17.8333 23.25 17.0833 24.1667 17.0833H27.5C28.4167 17.0833 29.1667 17.8333 29.1667 18.7499V21.2499C29.1667 22.1666 28.4167 22.9166 27.5 22.9166Z" stroke="#3669D9" stroke-width="2.5" stroke-miterlimit="10" stroke-linejoin="round"/>
<path d="M31.6667 11.6667L31.6167 6.66675H24.2833" stroke="#3669D9" stroke-width="2.5" stroke-miterlimit="10" stroke-linecap="round" stroke-linejoin="round"/>
</svg>
