<svg width="40" height="40" viewBox="0 0 40 40" fill="none" xmlns="http://www.w3.org/2000/svg">
<path d="M3.33334 3.33325H6.23335C8.03335 3.33325 9.45001 4.88325 9.30001 6.66659L7.91668 23.2666C7.68334 25.9832 9.83333 28.3166 12.5667 28.3166H30.3167C32.7167 28.3166 34.8167 26.3499 35 23.9666L35.9 11.4666C36.1 8.69993 34 6.44991 31.2167 6.44991H9.70002" stroke="#3669D9" stroke-width="2.5" stroke-miterlimit="10" stroke-linecap="round" stroke-linejoin="round"/>
<path d="M27.0833 36.6667C28.2339 36.6667 29.1667 35.7339 29.1667 34.5833C29.1667 33.4327 28.2339 32.5 27.0833 32.5C25.9327 32.5 25 33.4327 25 34.5833C25 35.7339 25.9327 36.6667 27.0833 36.6667Z" stroke="#3669D9" stroke-width="2.5" stroke-miterlimit="10" stroke-linecap="round" stroke-linejoin="round"/>
<path d="M13.75 36.6667C14.9006 36.6667 15.8333 35.7339 15.8333 34.5833C15.8333 33.4327 14.9006 32.5 13.75 32.5C12.5994 32.5 11.6667 33.4327 11.6667 34.5833C11.6667 35.7339 12.5994 36.6667 13.75 36.6667Z" stroke="#3669D9" stroke-width="2.5" stroke-miterlimit="10" stroke-linecap="round" stroke-linejoin="round"/>
<path d="M15 13.3333H35" stroke="#3669D9" stroke-width="2.5" stroke-miterlimit="10" stroke-linecap="round" stroke-linejoin="round"/>
</svg>
