<svg width="30" height="30" viewBox="0 0 30 30" fill="none" xmlns="http://www.w3.org/2000/svg">
<g clip-path="url(#clip0_1404_7522)">
<path d="M15 28C22.1797 28 28 22.1797 28 15C28 7.8203 22.1797 2 15 2C7.8203 2 2 7.8203 2 15C2 22.1797 7.8203 28 15 28Z" fill="#F0F0F0"/>
<path d="M28.0002 15.0012C28.0002 9.8472 25.0008 5.39389 20.6523 3.29114V26.7112C25.0008 24.6085 28.0002 20.1552 28.0002 15.0012Z" fill="#D80027"/>
<path d="M2 15.0005C2 20.1545 4.99939 24.6078 9.34784 26.7105V3.29041C4.99939 5.39316 2 9.84647 2 15.0005Z" fill="#D80027"/>
<path d="M17.2611 16.6968L19.5219 15.5663L18.3916 15.0011V13.8707L16.1307 15.0011L17.2611 12.7403H16.1307L15.0002 11.0446L13.8698 12.7403H12.7393L13.8698 15.0011L11.6089 13.8707V15.0011L10.4785 15.5663L12.7393 16.6968L12.1742 17.8272H14.435V19.5229H15.5654V17.8272H17.8263L17.2611 16.6968Z" fill="#D80027"/>
</g>
<rect x="1" y="1" width="28" height="28" rx="14" stroke="white" stroke-width="2"/>
<defs>
<clipPath id="clip0_1404_7522">
<rect x="2" y="2" width="26" height="26" rx="13" fill="white"/>
</clipPath>
</defs>
</svg>
