<svg width="112" height="26" viewBox="0 0 112 26" fill="none" xmlns="http://www.w3.org/2000/svg">
<path d="M0.664062 9.60007L10.7575 9.60215L16.8951 9.60319V3.46582L0.664062 9.60007Z" fill="#FF9D28"/>
<path d="M16.8965 3.46586V25.1339L24.5621 0.56781L16.8965 3.46586Z" fill="#68C5ED"/>
<path d="M16.8953 9.60327L10.7578 9.60223L16.8953 25.1339V9.60327Z" fill="#044D80"/>
<path d="M0.664062 9.60004L12.3315 13.5873L10.7575 9.60212L0.664062 9.60004Z" fill="#E54747"/>
<path d="M37.8469 19.43C37.7579 19.5199 37.6096 19.6319 37.4022 19.7665C37.1945 19.9013 36.9242 20.0359 36.5908 20.1706C36.2573 20.3051 35.8495 20.4208 35.368 20.5184C34.8861 20.6154 34.3343 20.6642 33.7118 20.6642C32.5111 20.6642 31.4736 20.4696 30.5992 20.0809C29.7245 19.6922 29.002 19.1494 28.4316 18.4539C27.8609 17.7583 27.4423 16.9356 27.1756 15.9854C26.9087 15.0355 26.7754 13.9922 26.7754 12.855C26.7754 11.7183 26.9199 10.6671 27.2089 9.70226C27.4978 8.73723 27.9313 7.90354 28.5094 7.20007C29.0875 6.49714 29.81 5.94726 30.6771 5.55069C31.5441 5.15456 32.5629 4.95605 33.734 4.95605C34.312 4.95605 34.8344 5.00858 35.3014 5.11311C35.7682 5.21787 36.1757 5.3414 36.5242 5.48339C36.8721 5.62575 37.1613 5.77505 37.3912 5.93219C37.6208 6.08926 37.7949 6.22047 37.9137 6.32485C38.047 6.44483 38.1617 6.58682 38.2583 6.7512C38.3545 6.91602 38.4027 7.09554 38.4027 7.28983C38.4027 7.58927 38.2916 7.88832 38.0693 8.18745C37.8471 8.48687 37.6024 8.76366 37.3356 9.01777C37.1577 8.83819 36.9577 8.65524 36.7354 8.46803C36.5131 8.28105 36.2647 8.11668 35.9906 7.97431C35.7162 7.83232 35.4049 7.71271 35.0568 7.61527C34.7084 7.51812 34.3194 7.46935 33.8897 7.46935C33.1338 7.46935 32.5002 7.62295 31.9889 7.92939C31.4775 8.23621 31.0662 8.63625 30.7549 9.13C30.4438 9.62365 30.2214 10.1885 30.088 10.8242C29.9546 11.4602 29.8879 12.1072 29.8879 12.7653C29.8879 13.4686 29.9546 14.1418 30.088 14.7848C30.2213 15.4282 30.4509 15.9968 30.7772 16.4903C31.103 16.9839 31.5292 17.3805 32.0555 17.6796C32.5814 17.9791 33.2373 18.1284 34.023 18.1284C34.4378 18.1284 34.8196 18.0763 35.168 17.9715C35.516 17.8669 35.8238 17.7396 36.0906 17.5897C36.3574 17.4406 36.5908 17.2835 36.7909 17.1188C36.991 16.9542 37.1577 16.8122 37.2911 16.6923C37.3801 16.7972 37.4835 16.9245 37.6023 17.0739C37.7218 17.2248 37.8331 17.3821 37.9358 17.5452C38.0394 17.7098 38.1283 17.8743 38.2026 18.0386C38.2766 18.2035 38.3137 18.3529 38.3137 18.4873C38.3137 18.6821 38.2766 18.8465 38.2026 18.9811C38.1282 19.1158 38.0097 19.2656 37.8469 19.43ZM49.304 17.709C49.304 18.898 49.4752 19.7635 49.8183 20.3052C49.5499 20.4104 49.3002 20.4858 49.069 20.5309C48.8377 20.5762 48.5956 20.5986 48.3422 20.5986C47.8054 20.5986 47.399 20.4932 47.1233 20.2825C46.8473 20.0721 46.6721 19.771 46.5977 19.3795C46.2695 19.726 45.8372 20.0194 45.3004 20.2603C44.7637 20.5006 44.1073 20.6213 43.3323 20.6213C42.9297 20.6213 42.5271 20.565 42.1245 20.4528C41.7218 20.3397 41.3564 20.1563 41.0285 19.9016C40.7004 19.6463 40.4321 19.305 40.2234 18.8774C40.0144 18.4497 39.9102 17.9285 39.9102 17.3135C39.9102 16.5484 40.0927 15.9255 40.4582 15.4457C40.8235 14.9654 41.2819 14.5867 41.8337 14.309C42.3852 14.0317 42.9818 13.8408 43.6231 13.7356C44.2641 13.6303 44.8532 13.5631 45.39 13.5327C45.569 13.5178 45.744 13.5101 45.9156 13.5101H46.3964V13.0992C46.3964 12.5207 46.2433 12.1097 45.9379 11.8663C45.6321 11.623 45.1362 11.5009 44.4506 11.5009C43.8093 11.5009 43.239 11.6063 42.7396 11.8169C42.2398 12.0279 41.7516 12.2685 41.2746 12.5394C41.0656 12.2836 40.8977 12.0015 40.7713 11.6928C40.6445 11.3845 40.5813 11.1549 40.5813 11.0043C40.5813 10.7937 40.6966 10.5905 40.9279 10.3947C41.159 10.1994 41.4759 10.0222 41.8785 9.86415C42.2812 9.70616 42.7431 9.5785 43.2653 9.48039C43.787 9.38263 44.3387 9.33367 44.9203 9.33367C45.7254 9.33367 46.4076 9.41661 46.9667 9.58205C47.5259 9.74785 47.9806 10.0035 48.3311 10.3496C48.6813 10.696 48.9312 11.1284 49.0803 11.6477C49.2292 12.1669 49.3041 12.7729 49.3041 13.465L49.304 17.709ZM46.441 15.0903H46.128C46.0234 15.0903 45.919 15.0981 45.8149 15.1129C45.4419 15.1433 45.0728 15.1883 44.7078 15.2482C44.3422 15.3086 44.0178 15.414 43.7349 15.5644C43.4514 15.715 43.2204 15.9108 43.0415 16.1513C42.8625 16.3922 42.7731 16.7009 42.7731 17.077C42.7731 17.4984 42.8923 17.8557 43.1309 18.1492C43.3692 18.4428 43.7719 18.5896 44.3387 18.5896C44.6218 18.5896 44.8902 18.5521 45.1439 18.4765C45.3973 18.4016 45.6209 18.3037 45.8149 18.1832C46.0085 18.0628 46.1615 17.9313 46.2734 17.788C46.3852 17.6452 46.4411 17.5136 46.4411 17.3931L46.441 15.0903ZM54.8727 10.6429C55.1104 10.3572 55.4822 10.0673 55.9875 9.77376C56.4929 9.48031 57.132 9.33358 57.9051 9.33358C58.4552 9.33358 58.979 9.4277 59.4771 9.61568C59.9747 9.80401 60.4171 10.1089 60.8036 10.53C61.1901 10.9516 61.4985 11.5086 61.7291 12.2006C61.9594 12.8931 62.0747 13.7436 62.0747 14.7516C62.0747 15.9255 61.9408 16.8927 61.6733 17.6526C61.4055 18.4129 61.0602 19.0149 60.6368 19.4588C60.2131 19.9028 59.7409 20.215 59.2209 20.3955C58.7006 20.5762 58.1803 20.6665 57.6602 20.6665C57.2291 20.6665 56.8535 20.6176 56.5343 20.5198C56.2145 20.4218 55.9433 20.313 55.7204 20.1924C55.4974 20.0721 55.3265 19.9519 55.2078 19.8312C55.0889 19.7109 55.0145 19.6279 54.9848 19.5827V25.1323H51.943V9.64957C52.0178 9.63475 52.108 9.61967 52.2135 9.6045C52.3037 9.58968 52.4088 9.57833 52.529 9.57053C52.6492 9.56316 52.7919 9.55935 52.9571 9.55935C53.4527 9.55935 53.8734 9.6422 54.2189 9.80765C54.5644 9.97344 54.7826 10.2517 54.8727 10.6429ZM58.8987 14.8193C58.8987 14.3679 58.8616 13.9467 58.7875 13.5552C58.7134 13.164 58.5911 12.8253 58.4206 12.5393C58.2501 12.2536 58.02 12.0313 57.7311 11.8733C57.4417 11.7153 57.0898 11.6363 56.6749 11.6363C56.0523 11.6363 55.6186 11.757 55.3738 11.9975C55.1293 12.2384 55.007 12.5019 55.007 12.7876V17.5737C55.1255 17.6942 55.3364 17.8371 55.6405 18.0026C55.9446 18.1683 56.2964 18.2508 56.6969 18.2508C57.4531 18.2508 58.0091 17.9501 58.3649 17.3479C58.7208 16.746 58.8987 15.903 58.8987 14.8193ZM64.4224 18.7024C64.3179 18.4016 64.2508 18.0854 64.2211 17.7542C64.191 17.4232 64.1764 17.0922 64.1764 16.7607V6.28581C64.2805 6.27104 64.3924 6.25589 64.5118 6.24066C64.6158 6.22589 64.7278 6.21466 64.8472 6.20683C64.9665 6.19944 65.0856 6.1956 65.205 6.1956C65.4434 6.1956 65.6823 6.21821 65.9209 6.26327C66.1591 6.3085 66.3755 6.39879 66.5696 6.53414C66.7632 6.66958 66.9197 6.85414 67.0391 7.08725C67.1584 7.32074 67.2181 7.62559 67.2181 8.00151V9.60433H70.3494V11.8846H67.2181V16.6988C67.2181 17.7486 67.643 18.2734 68.493 18.2734C68.7017 18.2734 68.899 18.2397 69.0857 18.1718C69.272 18.1041 69.4397 18.0289 69.5889 17.9462C69.7379 17.8634 69.8685 17.7769 69.9803 17.6865C70.0922 17.5961 70.1704 17.5285 70.2151 17.4834C70.4388 17.8147 70.61 18.1015 70.7296 18.3434C70.8487 18.5858 70.9084 18.8132 70.9084 19.0256C70.9084 19.2233 70.8304 19.4172 70.6737 19.6069C70.5169 19.7967 70.2969 19.9717 70.0137 20.131C69.7304 20.2905 69.3876 20.4195 68.985 20.5183C68.5825 20.6171 68.1424 20.6666 67.6654 20.6666C66.7406 20.6666 66.0214 20.4859 65.507 20.1248C64.9926 19.7635 64.6309 19.2893 64.4224 18.7024ZM78.0532 18.4089C78.4272 18.4089 78.7563 18.3676 79.0409 18.2847C79.325 18.2023 79.5793 18.1006 79.8038 17.9801C80.0282 17.8598 80.2229 17.7281 80.3875 17.585C80.5521 17.4422 80.7016 17.3105 80.8366 17.1898C81.0159 17.4155 81.2028 17.7055 81.3974 18.0589C81.5919 18.4129 81.6892 18.7024 81.6892 18.9281C81.6892 19.2593 81.5027 19.5603 81.1303 19.8312C80.8171 20.0721 80.3731 20.2791 79.7995 20.4519C79.2252 20.6249 78.5504 20.7115 77.7753 20.7115C77.0742 20.7115 76.3846 20.6213 75.7064 20.4407C75.0278 20.2602 74.4238 19.944 73.8948 19.4924C73.3653 19.0411 72.9366 18.4354 72.6087 17.6752C72.2806 16.9153 72.1166 15.956 72.1166 14.7968C72.1166 13.8486 72.2621 13.0324 72.5526 12.3474C72.8435 11.6627 73.231 11.0946 73.716 10.643C74.2002 10.1915 74.7482 9.86069 75.3597 9.64965C75.9709 9.43914 76.5973 9.33358 77.2385 9.33358C78.0735 9.33358 78.7817 9.46557 79.3632 9.72869C79.9448 9.99216 80.4179 10.3459 80.7835 10.7898C81.1486 11.2337 81.4132 11.7417 81.5774 12.3136C81.7412 12.8857 81.8235 13.4875 81.8235 14.1196V14.4356C81.8235 14.5563 81.8196 14.6839 81.8123 14.8193C81.8046 14.955 81.7973 15.0869 81.79 15.2144C81.7822 15.3426 81.771 15.4441 81.7565 15.5192H75.1584C75.2182 16.3471 75.4726 17.0356 75.9213 17.585C76.3699 18.1346 77.0807 18.4089 78.0532 18.4089ZM79.0724 13.826C79.0724 13.1037 78.9335 12.5167 78.6561 12.0651C78.3787 11.6137 77.8799 11.3878 77.1605 11.3878C76.5452 11.3878 76.0543 11.6024 75.687 12.0313C75.3193 12.4603 75.136 13.0585 75.136 13.8259L79.0724 13.826ZM87.1172 10.7C87.2058 10.5657 87.3256 10.4165 87.475 10.252C87.6234 10.0878 87.8066 9.93843 88.0228 9.80409C88.239 9.66976 88.4769 9.55753 88.7382 9.468C88.9987 9.37839 89.2791 9.33358 89.5769 9.33358C89.7558 9.33358 89.9459 9.34875 90.1473 9.37839C90.3488 9.40837 90.5346 9.46445 90.7065 9.54626C90.8775 9.62851 91.0155 9.74031 91.1206 9.88209C91.2248 10.024 91.2769 10.1993 91.2769 10.4081C91.2769 10.7365 91.1944 11.1136 91.0312 11.5393C90.8662 11.9655 90.703 12.3288 90.5389 12.6297C90.2854 12.419 90.0319 12.2572 89.7783 12.1444C89.5248 12.0315 89.2262 11.975 88.8841 11.975C88.4213 11.975 88.0341 12.1108 87.7207 12.3824C87.4072 12.654 87.251 12.9785 87.251 13.3559V20.664H84.2093V9.64957C84.2837 9.63475 84.3732 9.61967 84.4776 9.6045C84.567 9.58968 84.6714 9.57833 84.7908 9.57053C84.91 9.56316 85.0515 9.55935 85.2157 9.55935C85.6928 9.55935 86.1065 9.65269 86.4571 9.83911C86.8071 10.0253 87.0278 10.3124 87.1172 10.7ZM95.7647 10.7C95.8541 10.5657 95.9739 10.4165 96.1233 10.252C96.2717 10.0878 96.4549 9.93843 96.6711 9.80409C96.8864 9.66976 97.1252 9.55753 97.3865 9.468C97.647 9.37839 97.9266 9.33358 98.2252 9.33358C98.4041 9.33358 98.5942 9.34875 98.7956 9.37839C98.9971 9.40837 99.1829 9.46445 99.3548 9.54626C99.5258 9.62851 99.6639 9.74031 99.7689 9.88209C99.8731 10.024 99.9252 10.1993 99.9252 10.4081C99.9252 10.7365 99.8427 11.1136 99.6795 11.5393C99.5145 11.9655 99.3504 12.3288 99.1872 12.6297C98.9337 12.419 98.6802 12.2572 98.4266 12.1444C98.1731 12.0315 97.8745 11.975 97.5315 11.975C97.0696 11.975 96.6824 12.1108 96.369 12.3824C96.0555 12.654 95.8993 12.9785 95.8993 13.3559V20.664H92.857V9.64957C92.9317 9.63475 93.0211 9.61967 93.1262 9.6045C93.2156 9.58968 93.3198 9.57833 93.4387 9.57053C93.5586 9.56316 93.6992 9.55935 93.8642 9.55935C94.3408 9.55935 94.755 9.65269 95.1048 9.83911C95.4556 10.0253 95.6753 10.3124 95.7647 10.7ZM110.28 17.709C110.28 18.898 110.452 19.7635 110.795 20.3052C110.527 20.4104 110.277 20.4858 110.046 20.5309C109.814 20.5762 109.572 20.5986 109.319 20.5986C108.782 20.5986 108.376 20.4932 108.1 20.2825C107.824 20.0721 107.649 19.771 107.574 19.3795C107.246 19.726 106.814 20.0194 106.277 20.2603C105.74 20.5006 105.084 20.6213 104.309 20.6213C103.906 20.6213 103.504 20.565 103.101 20.4528C102.698 20.3397 102.333 20.1563 102.005 19.9016C101.677 19.6463 101.409 19.305 101.2 18.8774C100.991 18.4497 100.887 17.9285 100.887 17.3135C100.887 16.5484 101.069 15.9255 101.435 15.4457C101.801 14.9654 102.259 14.5867 102.81 14.309C103.362 14.0317 103.958 13.8408 104.6 13.7356C105.24 13.6303 105.83 13.5631 106.366 13.5327C106.545 13.5178 106.721 13.5101 106.893 13.5101H107.373V13.0992C107.373 12.5207 107.22 12.1097 106.914 11.8663C106.609 11.623 106.113 11.5009 105.427 11.5009C104.786 11.5009 104.216 11.6063 103.717 11.8169C103.217 12.0279 102.729 12.2685 102.251 12.5394C102.043 12.2836 101.874 12.0015 101.748 11.6928C101.622 11.3845 101.558 11.1549 101.558 11.0043C101.558 10.7937 101.673 10.5905 101.905 10.3947C102.136 10.1994 102.453 10.0222 102.855 9.86415C103.258 9.70616 103.72 9.5785 104.242 9.48039C104.764 9.38263 105.315 9.33367 105.897 9.33367C106.702 9.33367 107.384 9.41661 107.943 9.58205C108.502 9.74785 108.957 10.0035 109.308 10.3496C109.658 10.696 109.908 11.1284 110.057 11.6477C110.206 12.1669 110.28 12.7729 110.28 13.465V17.709ZM107.418 15.0903H107.104C107 15.0903 106.896 15.0981 106.792 15.1129C106.419 15.1433 106.05 15.1883 105.684 15.2482C105.319 15.3086 104.995 15.414 104.712 15.5644C104.428 15.715 104.197 15.9108 104.018 16.1513C103.839 16.3922 103.75 16.7009 103.75 17.077C103.75 17.4984 103.869 17.8557 104.107 18.1492C104.346 18.4428 104.749 18.5896 105.315 18.5896C105.599 18.5896 105.867 18.5521 106.121 18.4765C106.374 18.4016 106.597 18.3037 106.792 18.1832C106.985 18.0628 107.138 17.9313 107.25 17.788C107.362 17.6452 107.418 17.5136 107.418 17.3931V15.0903Z" fill="#044D80"/>
</svg>
