<svg width="40" height="40" viewBox="0 0 40 40" fill="none" xmlns="http://www.w3.org/2000/svg">
<path d="M20.6166 3.5834L35.6166 9.58336C36.2 9.81669 36.6667 10.5167 36.6667 11.1333V16.6667C36.6667 17.5834 35.9167 18.3334 35 18.3334H4.99998C4.08331 18.3334 3.33331 17.5834 3.33331 16.6667V11.1333C3.33331 10.5167 3.79999 9.81669 4.38332 9.58336L19.3833 3.5834C19.7167 3.45007 20.2833 3.45007 20.6166 3.5834Z" stroke="#3669D9" stroke-width="2.5" stroke-miterlimit="10" stroke-linecap="round" stroke-linejoin="round"/>
<path d="M36.6667 36.6667H3.33331V31.6667C3.33331 30.75 4.08331 30 4.99998 30H35C35.9167 30 36.6667 30.75 36.6667 31.6667V36.6667Z" stroke="#3669D9" stroke-width="2.5" stroke-miterlimit="10" stroke-linecap="round" stroke-linejoin="round"/>
<path d="M6.66669 29.9999V18.3333" stroke="#3669D9" stroke-width="2.5" stroke-miterlimit="10" stroke-linecap="round" stroke-linejoin="round"/>
<path d="M13.3333 29.9999V18.3333" stroke="#3669D9" stroke-width="2.5" stroke-miterlimit="10" stroke-linecap="round" stroke-linejoin="round"/>
<path d="M20 29.9999V18.3333" stroke="#3669D9" stroke-width="2.5" stroke-miterlimit="10" stroke-linecap="round" stroke-linejoin="round"/>
<path d="M26.6667 29.9999V18.3333" stroke="#3669D9" stroke-width="2.5" stroke-miterlimit="10" stroke-linecap="round" stroke-linejoin="round"/>
<path d="M33.3333 29.9999V18.3333" stroke="#3669D9" stroke-width="2.5" stroke-miterlimit="10" stroke-linecap="round" stroke-linejoin="round"/>
<path d="M1.66669 36.6667H38.3333" stroke="#3669D9" stroke-width="2.5" stroke-miterlimit="10" stroke-linecap="round" stroke-linejoin="round"/>
<path d="M20 14.1667C21.3807 14.1667 22.5 13.0475 22.5 11.6667C22.5 10.286 21.3807 9.16675 20 9.16675C18.6193 9.16675 17.5 10.286 17.5 11.6667C17.5 13.0475 18.6193 14.1667 20 14.1667Z" stroke="#3669D9" stroke-width="2.5" stroke-miterlimit="10" stroke-linecap="round" stroke-linejoin="round"/>
</svg>
