<svg width="56" height="38" viewBox="0 0 56 38" fill="none" xmlns="http://www.w3.org/2000/svg">
<g clip-path="url(#clip0_1229_65433)">
<mask id="mask0_1229_65433" style="mask-type:luminance" maskUnits="userSpaceOnUse" x="0" y="0" width="55" height="38">
<path d="M54.3142 0H0V38H54.3142V0Z" fill="white"/>
</mask>
<g mask="url(#mask0_1229_65433)">
<path d="M14.1274 0.109924C17.5294 0.110047 20.5727 1.73188 22.4826 4.24855L22.8166 3.90529C24.5329 2.28319 26.827 1.29372 29.345 1.29372C32.9261 1.29375 36.03 3.28262 37.7011 6.24688C39.1845 5.58384 40.7912 5.24137 42.4159 5.24215C48.862 5.24215 54.0942 10.5149 54.0942 17.0207C54.0941 23.5264 48.8619 28.7983 42.4159 28.7983C41.6282 28.7982 40.8604 28.7196 40.1086 28.57C38.6463 31.1762 35.8505 32.9471 32.6673 32.9471C31.3715 32.9496 30.0924 32.655 28.9276 32.0871C27.4454 35.5688 23.9929 38.0162 19.974 38.0162C15.7763 38.0161 12.2151 35.3695 10.8423 31.6491C10.2313 31.7782 9.60849 31.8434 8.98408 31.843C3.99052 31.843 -0.0481169 27.7447 -0.0483398 22.7114C-0.0483398 19.3292 1.77007 16.3839 4.46787 14.7922C3.89563 13.4739 3.6008 12.0519 3.60229 10.6146C3.60229 4.80524 8.31802 0.109924 14.1274 0.109924ZM31.5327 13.332C30.9652 13.332 30.5173 13.4931 30.2033 13.8098C29.8916 14.1241 29.6797 14.6032 29.5733 15.233L29.5344 15.4454H28.8219C28.8162 15.4453 28.7348 15.4451 28.717 15.5363L28.6001 16.1894C28.5921 16.2517 28.6187 16.291 28.7022 16.2905H29.3961L28.6919 20.2186C28.6369 20.5347 28.5734 20.7952 28.5036 20.9923C28.4348 21.1866 28.3683 21.3328 28.2856 21.4385C28.2054 21.541 28.129 21.6163 27.998 21.6603C27.8898 21.6967 27.7652 21.7131 27.6288 21.7132C27.5528 21.7132 27.4519 21.7002 27.3774 21.6854C27.3027 21.6706 27.2635 21.6541 27.2075 21.6305C27.2052 21.6297 27.1261 21.6009 27.0944 21.6807C27.0682 21.7477 26.8835 22.2559 26.8615 22.319C26.8393 22.3809 26.8704 22.4301 26.9098 22.4442C27.002 22.4772 27.0707 22.4981 27.1964 22.5277C27.3711 22.5689 27.5187 22.5713 27.6566 22.5713C27.9453 22.5712 28.2084 22.5312 28.4267 22.4526C28.6462 22.3732 28.8373 22.2344 29.0064 22.0471C29.1892 21.8452 29.3046 21.6341 29.4147 21.3457C29.5234 21.0599 29.616 20.7045 29.6902 20.2909L30.3971 16.2905H31.4307C31.4307 16.2905 31.5182 16.2931 31.5364 16.1987L31.6532 15.5465C31.6614 15.4841 31.6348 15.4451 31.5512 15.4454H30.5474C30.5524 15.4227 30.5983 15.0697 30.7135 14.7375C30.7626 14.5957 30.855 14.4812 30.9333 14.4026C31.0065 14.3279 31.0965 14.2719 31.1959 14.2393C31.3049 14.2056 31.4186 14.1886 31.5327 14.1901C31.6271 14.1901 31.7199 14.2023 31.7906 14.217C31.8877 14.2377 31.9256 14.2485 31.9511 14.256C32.0533 14.2872 32.0673 14.2564 32.0875 14.2069L32.3277 13.5481C32.3522 13.4775 32.2915 13.4474 32.2693 13.4387C32.1676 13.408 32.0641 13.3836 31.9594 13.3653C31.8184 13.3419 31.6756 13.3305 31.5327 13.332ZM9.69655 15.335C8.67997 15.335 7.96918 15.9493 7.96914 16.8287V16.8472C7.9692 17.7742 8.75387 18.0772 9.48598 18.2861L9.60288 18.3223C10.1361 18.4862 10.5983 18.6292 10.5983 19.0032V19.0217C10.5983 19.3659 10.2976 19.6229 9.81625 19.623C9.62901 19.623 9.03221 19.6196 8.3857 19.2111C8.30768 19.1656 8.263 19.1327 8.20293 19.096C8.1711 19.0767 8.09097 19.0419 8.05635 19.1461L7.8374 19.7547L7.82627 19.8103C7.82539 19.8537 7.85324 19.8672 7.86152 19.879C7.96318 19.9527 8.06702 20.0057 8.17046 20.0655C8.72341 20.3578 9.24436 20.444 9.78937 20.444C10.8994 20.444 11.59 19.853 11.5901 18.9021V18.8835C11.5901 18.0042 10.8098 17.6837 10.0816 17.4548L9.98697 17.4242C9.43591 17.2456 8.96005 17.0895 8.95996 16.7275V16.709C8.96006 16.3987 9.2391 16.1699 9.66872 16.1699C10.1461 16.17 10.715 16.3289 11.0789 16.5299C11.0808 16.5311 11.1876 16.5986 11.2264 16.4956C11.2481 16.4383 11.4326 15.9436 11.4528 15.8869C11.4739 15.8287 11.437 15.7844 11.399 15.7617C10.9811 15.507 10.4038 15.334 9.80694 15.334L9.69655 15.335ZM25.9487 15.3331C24.9322 15.3332 24.2223 15.9476 24.2221 16.8268V16.8462C24.2223 17.7731 25.006 18.0754 25.7381 18.2843L25.8549 18.3213C26.39 18.4853 26.8503 18.6274 26.8504 19.0014V19.0199C26.8503 19.364 26.5497 19.6211 26.0683 19.6211C25.8807 19.6211 25.2823 19.6178 24.6378 19.2092C24.5598 19.1638 24.5141 19.1322 24.455 19.0941C24.4349 19.0814 24.3404 19.0447 24.3084 19.1443L24.0894 19.7529L24.0802 19.8085C24.0792 19.8518 24.1066 19.8654 24.1155 19.8771C24.2167 19.9507 24.3209 20.0047 24.4244 20.0646C24.9772 20.3568 25.4984 20.4421 26.0433 20.4422C27.1534 20.4422 27.8439 19.8512 27.844 18.9002V18.8817C27.844 18.0025 27.0665 17.6818 26.3365 17.453L26.2409 17.4224C25.6898 17.2437 25.2139 17.0876 25.2139 16.7257V16.7071C25.2141 16.397 25.4932 16.1681 25.9226 16.168C26.3999 16.1681 26.9668 16.327 27.3328 16.528C27.3347 16.5292 27.4412 16.5967 27.4804 16.4937C27.502 16.4358 27.6868 15.9412 27.7048 15.8851C27.726 15.8269 27.6888 15.7825 27.651 15.7599C27.2334 15.5054 26.6565 15.3322 26.0599 15.3322L25.9487 15.3331ZM33.9893 15.3498C33.6115 15.3499 33.2792 15.4174 32.9947 15.5493C32.7125 15.6814 32.4721 15.8636 32.2832 16.0901C32.0946 16.3169 31.9526 16.588 31.8611 16.8963C31.7707 17.2026 31.7247 17.5368 31.7247 17.8928C31.7247 18.2487 31.7707 18.5828 31.8611 18.8891C31.952 19.1975 32.0942 19.4685 32.2832 19.6953C32.4723 19.922 32.7125 20.1032 32.9947 20.2325C33.2792 20.3613 33.6135 20.4273 33.9893 20.4273C34.3653 20.4273 34.7004 20.3614 34.9829 20.2325C35.2652 20.1036 35.5056 19.922 35.6944 19.6953C35.8833 19.4685 36.025 19.1975 36.1166 18.8891C36.2069 18.5828 36.2529 18.2487 36.2529 17.8928C36.2529 17.5388 36.2069 17.2026 36.1166 16.8963L36.0405 16.6718C35.9534 16.455 35.8381 16.2602 35.6963 16.0901C35.5072 15.8636 35.269 15.6805 34.9848 15.5493C34.7023 15.417 34.3673 15.3498 33.9893 15.3498ZM21.4565 15.347C21.0647 15.347 20.7087 15.4128 20.4202 15.5474C20.1318 15.6831 19.8885 15.8677 19.6976 16.0985C19.5073 16.3292 19.3633 16.6018 19.2717 16.914C19.1804 17.2223 19.1344 17.5609 19.1344 17.915C19.1344 18.277 19.1824 18.6135 19.2773 18.9179C19.3724 19.2242 19.526 19.4929 19.7309 19.7157C19.9378 19.9405 20.2022 20.1157 20.5205 20.239C20.8368 20.3613 21.219 20.425 21.6607 20.4236C22.5678 20.4206 23.0456 20.2186 23.2406 20.1091C23.2751 20.0895 23.3076 20.0555 23.2665 19.9588L23.0615 19.3836C23.0308 19.3015 22.9495 19.3269 22.9437 19.3289C22.7189 19.4129 22.4001 19.5637 21.6541 19.5617C21.1689 19.5609 20.8066 19.4178 20.5798 19.1925C20.3491 18.9618 20.2341 18.6251 20.2162 18.1478L23.3594 18.1497C23.3594 18.1497 23.4417 18.1479 23.4503 18.068C23.4541 18.0321 23.5576 17.4219 23.3565 16.7173H23.3547C23.2759 16.4209 23.0803 16.1199 22.9529 15.9825C22.75 15.7657 22.5525 15.6125 22.3555 15.5289C22.0713 15.408 21.7654 15.3465 21.4565 15.347ZM46.5842 15.347C46.1924 15.347 45.8364 15.4128 45.5479 15.5474C45.2595 15.6831 45.0162 15.8677 44.8253 16.0985C44.6345 16.3292 44.491 16.6018 44.3994 16.914C44.3079 17.2223 44.2621 17.5609 44.2621 17.915C44.2621 18.277 44.3098 18.6135 44.404 18.9179C44.4993 19.2242 44.6528 19.4929 44.8596 19.7157C45.0665 19.9405 45.3317 20.1157 45.65 20.239C45.9663 20.3612 46.3506 20.425 46.7902 20.4236C47.6966 20.4205 48.174 20.2186 48.3692 20.1091C48.404 20.0896 48.4371 20.0556 48.3961 19.9588L48.191 19.3836C48.1606 19.3014 48.079 19.3269 48.0732 19.3289C47.8485 19.4129 47.5297 19.5637 46.7837 19.5617C46.2964 19.5609 45.9362 19.4178 45.7093 19.1925C45.4787 18.9618 45.3636 18.6251 45.3457 18.1478L48.4889 18.1497C48.4889 18.1497 48.5713 18.1479 48.5798 18.068C48.5837 18.032 48.6869 17.4219 48.4861 16.7173H48.4824C48.4034 16.4209 48.208 16.1199 48.0806 15.9825C47.8777 15.7657 47.6801 15.6125 47.4832 15.5289C47.1989 15.408 46.8931 15.3465 46.5842 15.347ZM42.5495 15.3368C42.1596 15.3368 41.8134 15.4041 41.5169 15.5363C41.2206 15.6681 40.97 15.8505 40.7711 16.0771C40.5722 16.3039 40.4207 16.5743 40.3192 16.8824C40.2188 17.1888 40.168 17.5255 40.168 17.8816C40.1681 18.6495 40.3752 19.2723 40.7849 19.7278C41.1948 20.1853 41.8117 20.4162 42.6154 20.4162C43.0908 20.4162 43.578 20.3201 43.9281 20.1815C43.9281 20.1815 43.9952 20.149 43.9662 20.071L43.737 19.443L43.7221 19.4142C43.686 19.3622 43.622 19.385 43.6183 19.3864C43.4836 19.4379 43.3391 19.4859 43.186 19.5098C43.0318 19.534 42.8601 19.546 42.6794 19.546C42.2319 19.546 41.8736 19.4123 41.619 19.148C41.3623 18.8833 41.219 18.4576 41.221 17.8807C41.2224 17.3555 41.3495 16.9612 41.5772 16.6588C41.802 16.3608 42.1479 16.2053 42.6052 16.2052C42.987 16.2052 43.2795 16.2504 43.5858 16.3462C43.5858 16.3462 43.6588 16.3765 43.6934 16.2822C43.7748 16.0575 43.8353 15.896 43.9226 15.6494C43.9471 15.5792 43.8874 15.5487 43.865 15.54C43.7449 15.4931 43.4611 15.4166 43.2463 15.3841C43.0453 15.3535 42.8121 15.3368 42.5495 15.3368ZM14.274 15.3396C14.0392 15.3396 13.6593 15.3711 13.4325 15.4166C13.4207 15.419 12.746 15.5518 12.4659 15.771C12.4637 15.7724 12.4048 15.8112 12.4381 15.8962L12.6606 16.4927C12.688 16.5687 12.7615 16.5445 12.7636 16.5439C12.7636 16.5439 12.788 16.5336 12.8147 16.5178C13.4157 16.1906 14.1775 16.1996 14.1822 16.1996C14.5201 16.1997 14.7828 16.2677 14.9577 16.4018C15.129 16.5334 15.2166 16.7328 15.2166 17.1505V17.2832C14.9481 17.2442 14.699 17.222 14.699 17.222L14.6961 17.2146C14.5688 17.2052 14.4032 17.2007 14.2063 17.2007C13.9378 17.2007 13.6771 17.2334 13.4344 17.299C13.1898 17.365 12.9693 17.4682 12.7803 17.6042C12.591 17.7393 12.435 17.916 12.3248 18.121C12.2137 18.3279 12.157 18.571 12.157 18.8455C12.157 19.1239 12.2053 19.3649 12.3007 19.5617C12.3943 19.7569 12.5355 19.9255 12.7108 20.0525C12.8852 20.1794 13.1004 20.2742 13.3491 20.3299C13.5956 20.3861 13.8741 20.4143 14.1804 20.4143C14.5026 20.4143 14.8237 20.3869 15.1341 20.3345C15.3982 20.2889 15.6615 20.2382 15.9235 20.1815C16.0268 20.1577 16.1414 20.1266 16.1443 20.1258C16.2204 20.1065 16.2159 20.0259 16.2157 20.0229L16.2139 17.1579C16.2139 16.5293 16.0463 16.0614 15.7148 15.7728C15.3846 15.4845 14.9007 15.3396 14.274 15.3396ZM17.3263 13.4331C17.2737 13.4332 17.2363 13.4764 17.2363 13.5287V20.2269C17.2365 20.2792 17.2738 20.3214 17.3263 20.3215H18.1585C18.2108 20.3215 18.2483 20.2793 18.2485 20.2269V13.5287C18.2485 13.4763 18.2109 13.4331 18.1585 13.4331H17.3263ZM39.3906 15.3944C38.9967 15.3698 38.7776 15.4359 38.5806 15.5242C38.3862 15.612 38.1712 15.7536 38.0519 15.9167L38.0509 15.5345C38.0509 15.4819 38.0139 15.4398 37.961 15.4398H37.1575C37.1054 15.4399 37.0676 15.4819 37.0676 15.5345V20.2102C37.0677 20.2353 37.0777 20.2593 37.0954 20.277C37.1132 20.2948 37.1379 20.3048 37.163 20.3048H37.9869C38.012 20.3047 38.036 20.2947 38.0537 20.277C38.0714 20.2592 38.0814 20.2353 38.0815 20.2102V17.8621C38.0815 17.5479 38.1165 17.2353 38.1854 17.0383C38.2535 16.8437 38.3462 16.6885 38.4601 16.5772C38.5688 16.4697 38.7018 16.3897 38.8479 16.3444C38.985 16.305 39.1274 16.285 39.27 16.285C39.4338 16.2851 39.6141 16.3267 39.6141 16.3267C39.6744 16.3333 39.7078 16.2967 39.7282 16.2423C39.7822 16.0989 39.935 15.6694 39.9649 15.5836L39.9704 15.5632C39.9704 15.5522 39.9681 15.5409 39.9639 15.5307C39.9596 15.5202 39.9526 15.51 39.9445 15.502C39.9363 15.494 39.9262 15.4876 39.9157 15.4834C39.8613 15.463 39.595 15.4071 39.3906 15.3944ZM14.363 17.9948C14.6482 17.9999 14.9329 18.0239 15.2147 18.0672V19.494C15.1999 19.4972 14.8087 19.5806 14.3677 19.6072C13.7352 19.6452 13.4517 19.427 13.4483 19.4235L13.4465 19.4225C13.3235 19.3244 13.3064 19.2999 13.2656 19.2361C13.2035 19.1401 13.1719 19.0036 13.1718 18.8288C13.1718 18.5543 13.2632 18.3554 13.4521 18.2221C13.4521 18.2221 13.7235 17.9869 14.363 17.9948ZM33.992 16.2015C34.4058 16.2016 34.6999 16.3445 34.8947 16.6375C35.092 16.9339 35.1916 17.3556 35.1916 17.8928L35.187 18.0867C35.1652 18.5316 35.0664 18.8888 34.8947 19.1517C34.699 19.448 34.4037 19.5932 33.992 19.5933C33.5804 19.5933 33.2851 19.4499 33.0922 19.1545C32.8978 18.8561 32.8 18.4298 32.8 17.8928C32.8 17.3558 32.8986 16.9339 33.0922 16.6375C33.2848 16.343 33.5783 16.2015 33.992 16.2015ZM21.3833 16.1773C21.7946 16.1774 22.0669 16.3396 22.2618 16.6329C22.3909 16.8268 22.4483 17.0848 22.4696 17.3732H20.231C20.2754 17.0749 20.357 16.8258 20.4852 16.6329C20.6778 16.3385 20.9714 16.1773 21.3833 16.1773ZM46.511 16.1773C46.9226 16.1774 47.1955 16.3393 47.3905 16.6329C47.5197 16.8268 47.5762 17.0848 47.5973 17.3732H45.3587C45.4031 17.0749 45.4853 16.8258 45.6138 16.6329C45.8062 16.3388 46.0993 16.1773 46.511 16.1773Z" fill="#4B5563"/>
</g>
</g>
<defs>
<clipPath id="clip0_1229_65433">
<rect width="55.1" height="38" fill="white"/>
</clipPath>
</defs>
</svg>
