<svg width="17" height="17" viewBox="0 0 17 17" fill="none" xmlns="http://www.w3.org/2000/svg">
<path d="M9.96819 1.22757L11.4683 4.24435C11.6704 4.66157 12.213 5.05738 12.6705 5.14297L15.3835 5.59228C17.1176 5.88112 17.5219 7.14346 16.2771 8.4058L14.1599 10.5347C13.8089 10.8877 13.6067 11.583 13.7238 12.0858L14.3302 14.7175C14.8089 16.7929 13.7025 17.6059 11.8832 16.5147L9.34046 14.9956C8.88298 14.7175 8.11699 14.7175 7.65951 14.9956L5.11677 16.5147C3.29749 17.5952 2.19105 16.7929 2.6698 14.7175L3.27623 12.0858C3.39326 11.5937 3.19112 10.8984 2.84003 10.5347L0.722874 8.4058C-0.521892 7.15415 -0.117613 5.89182 1.61655 5.59228L4.32949 5.14297C4.78697 5.06808 5.32956 4.66157 5.5317 4.24435L7.03181 1.22757C7.82974 -0.409191 9.14899 -0.409191 9.96819 1.22757Z" fill="#F9B21D"/>
</svg>
