<svg width="30" height="30" viewBox="0 0 30 30" fill="none" xmlns="http://www.w3.org/2000/svg">
<g clip-path="url(#clip0_1404_7521)">
<path d="M15 28C22.1797 28 28 22.1797 28 15C28 7.8203 22.1797 2 15 2C7.8203 2 2 7.8203 2 15C2 22.1797 7.8203 28 15 28Z" fill="#F0F0F0"/>
<path d="M14.4336 15H27.9988C27.9988 13.8267 27.8424 12.69 27.5509 11.6087H14.4336V15Z" fill="#D80027"/>
<path d="M14.4336 8.21676H26.0907C25.2949 6.91819 24.2774 5.77038 23.0911 4.82544H14.4336V8.21676Z" fill="#D80027"/>
<path d="M14.9985 28C18.0581 28 20.8702 26.9426 23.0908 25.174H6.90625C9.12691 26.9426 11.939 28 14.9985 28Z" fill="#D80027"/>
<path d="M3.90748 21.7816H26.0914C26.7302 20.7391 27.2257 19.5996 27.5516 18.3903H2.44727C2.77313 19.5996 3.2686 20.7391 3.90748 21.7816Z" fill="#D80027"/>
<path d="M8.02184 4.03013H9.20652L8.10457 4.8307L8.52549 6.12608L7.42359 5.32551L6.32169 6.12608L6.68528 5.00701C5.71505 5.8152 4.86467 6.76206 4.16389 7.81709H4.54348L3.84204 8.32668C3.73276 8.50899 3.62795 8.69419 3.5275 8.88213L3.86245 9.91304L3.23754 9.459C3.0822 9.78812 2.94011 10.1246 2.8124 10.4682L3.18143 11.6041H4.54348L3.44153 12.4046L3.86245 13.7L2.76055 12.8994L2.1005 13.379C2.03443 13.9101 2 14.451 2 15H15C15 7.82034 15 6.97392 15 2C12.4319 2 10.0379 2.74496 8.02184 4.03013ZM8.52549 13.7L7.42359 12.8994L6.32169 13.7L6.74261 12.4046L5.64066 11.6041H7.00271L7.42359 10.3087L7.84447 11.6041H9.20652L8.10457 12.4046L8.52549 13.7ZM8.10457 8.61766L8.52549 9.91304L7.42359 9.11247L6.32169 9.91304L6.74261 8.61766L5.64066 7.81709H7.00271L7.42359 6.52171L7.84447 7.81709H9.20652L8.10457 8.61766ZM13.1885 13.7L12.0866 12.8994L10.9847 13.7L11.4057 12.4046L10.3037 11.6041H11.6658L12.0866 10.3087L12.5075 11.6041H13.8696L12.7676 12.4046L13.1885 13.7ZM12.7676 8.61766L13.1885 9.91304L12.0866 9.11247L10.9847 9.91304L11.4057 8.61766L10.3037 7.81709H11.6658L12.0866 6.52171L12.5075 7.81709H13.8696L12.7676 8.61766ZM12.7676 4.8307L13.1885 6.12608L12.0866 5.32551L10.9847 6.12608L11.4057 4.8307L10.3037 4.03013H11.6658L12.0866 2.73475L12.5075 4.03013H13.8696L12.7676 4.8307Z" fill="#0052B4"/>
</g>
<rect x="1" y="1" width="28" height="28" rx="14" stroke="white" stroke-width="2"/>
<defs>
<clipPath id="clip0_1404_7521">
<rect x="2" y="2" width="26" height="26" rx="13" fill="white"/>
</clipPath>
</defs>
</svg>
