<svg width="28" height="28" viewBox="0 0 28 28" fill="none" xmlns="http://www.w3.org/2000/svg">
<rect width="28" height="28" rx="14" fill="#3669D9"/>
<path d="M10.552 17.472C11.576 16.6187 12.392 15.9093 13 15.344C13.608 14.768 14.1147 14.1707 14.52 13.552C14.9253 12.9333 15.128 12.3253 15.128 11.728C15.128 11.184 15 10.7573 14.744 10.448C14.488 10.1387 14.0933 9.984 13.56 9.984C13.0267 9.984 12.616 10.1653 12.328 10.528C12.04 10.88 11.8907 11.3653 11.88 11.984H9.704C9.74667 10.704 10.1253 9.73333 10.84 9.072C11.5653 8.41067 12.4827 8.08 13.592 8.08C14.808 8.08 15.7413 8.40533 16.392 9.056C17.0427 9.696 17.368 10.544 17.368 11.6C17.368 12.432 17.144 13.2267 16.696 13.984C16.248 14.7413 15.736 15.4027 15.16 15.968C14.584 16.5227 13.832 17.1947 12.904 17.984H17.624V19.84H9.72V18.176L10.552 17.472Z" fill="white"/>
</svg>
