<svg width="28" height="28" viewBox="0 0 28 28" fill="none" xmlns="http://www.w3.org/2000/svg">
<rect width="28" height="28" rx="14" fill="#3669D9"/>
<path d="M9.88 11.408C9.93333 10.3413 10.3067 9.52 11 8.944C11.704 8.35733 12.6267 8.064 13.768 8.064C14.5467 8.064 15.2133 8.20267 15.768 8.48C16.3227 8.74667 16.7387 9.11467 17.016 9.584C17.304 10.0427 17.448 10.5653 17.448 11.152C17.448 11.824 17.272 12.3947 16.92 12.864C16.5787 13.3227 16.168 13.632 15.688 13.792V13.856C16.3067 14.048 16.7867 14.3893 17.128 14.88C17.48 15.3707 17.656 16 17.656 16.768C17.656 17.408 17.5067 17.9787 17.208 18.48C16.92 18.9813 16.488 19.376 15.912 19.664C15.3467 19.9413 14.664 20.08 13.864 20.08C12.6587 20.08 11.6773 19.776 10.92 19.168C10.1627 18.56 9.76267 17.664 9.72 16.48H11.896C11.9173 17.0027 12.0933 17.424 12.424 17.744C12.7653 18.0533 13.2293 18.208 13.816 18.208C14.36 18.208 14.776 18.0587 15.064 17.76C15.3627 17.4507 15.512 17.056 15.512 16.576C15.512 15.936 15.3093 15.4773 14.904 15.2C14.4987 14.9227 13.8693 14.784 13.016 14.784H12.552V12.944H13.016C14.5307 12.944 15.288 12.4373 15.288 11.424C15.288 10.9653 15.1493 10.608 14.872 10.352C14.6053 10.096 14.216 9.968 13.704 9.968C13.2027 9.968 12.8133 10.1067 12.536 10.384C12.2693 10.6507 12.1147 10.992 12.072 11.408H9.88Z" fill="white"/>
</svg>
