<svg width="35" height="35" viewBox="0 0 35 35" fill="none" xmlns="http://www.w3.org/2000/svg">
<path d="M17.5001 2.91663C9.46466 2.91663 2.91675 9.46454 2.91675 17.5C2.91675 25.5354 9.46466 32.0833 17.5001 32.0833C25.5355 32.0833 32.0834 25.5354 32.0834 17.5C32.0834 9.46454 25.5355 2.91663 17.5001 2.91663ZM24.4709 14.1458L16.2022 22.4145C15.998 22.6187 15.7209 22.7354 15.4292 22.7354C15.1376 22.7354 14.8605 22.6187 14.6563 22.4145L10.5292 18.2875C10.1063 17.8645 10.1063 17.1645 10.5292 16.7416C10.9522 16.3187 11.6522 16.3187 12.0751 16.7416L15.4292 20.0958L22.9251 12.6C23.348 12.177 24.048 12.177 24.4709 12.6C24.8938 13.0229 24.8938 13.7083 24.4709 14.1458Z" fill="#11B571"/>
</svg>
