<svg width="44" height="44" viewBox="0 0 44 44" fill="none" xmlns="http://www.w3.org/2000/svg">
<rect width="44" height="44" rx="22" fill="#3669D9"/>
<path d="M28.0002 16C27.3902 16 26.8302 15.65 26.5502 15.11L25.8302 13.66C25.3702 12.75 24.1702 12 23.1502 12H20.8602C19.8302 12 18.6302 12.75 18.1702 13.66L17.4502 15.11C17.1702 15.65 16.6102 16 16.0002 16C13.8302 16 12.1102 17.83 12.2502 19.99L12.7702 28.25C12.8902 30.31 14.0002 32 16.7602 32H27.2402C30.0002 32 31.1002 30.31 31.2302 28.25L31.7502 19.99C31.8902 17.83 30.1702 16 28.0002 16ZM20.5002 17.25H23.5002C23.9102 17.25 24.2502 17.59 24.2502 18C24.2502 18.41 23.9102 18.75 23.5002 18.75H20.5002C20.0902 18.75 19.7502 18.41 19.7502 18C19.7502 17.59 20.0902 17.25 20.5002 17.25ZM22.0002 28.12C20.1402 28.12 18.6202 26.61 18.6202 24.74C18.6202 22.87 20.1302 21.36 22.0002 21.36C23.8702 21.36 25.3802 22.87 25.3802 24.74C25.3802 26.61 23.8602 28.12 22.0002 28.12Z" fill="white"/>
</svg>
