<svg width="44" height="44" viewBox="0 0 44 44" fill="none" xmlns="http://www.w3.org/2000/svg">
<rect width="44" height="44" rx="22" fill="#3669D9"/>
<path d="M22.75 25.92H23.4C24.05 25.92 24.59 25.34 24.59 24.64C24.59 23.77 24.28 23.6 23.77 23.42L22.76 23.07V25.92H22.75Z" fill="white"/>
<path d="M21.9701 11.9C16.4501 11.92 11.9801 16.41 12.0001 21.93C12.0201 27.45 16.5101 31.92 22.0301 31.9C27.5501 31.88 32.0201 27.39 32.0001 21.87C31.9801 16.35 27.4901 11.89 21.9701 11.9ZM24.2601 22C25.0401 22.27 26.0901 22.85 26.0901 24.64C26.0901 26.18 24.8801 27.42 23.4001 27.42H22.7501V28C22.7501 28.41 22.4101 28.75 22.0001 28.75C21.5901 28.75 21.2501 28.41 21.2501 28V27.42H20.8901C19.2501 27.42 17.9201 26.04 17.9201 24.34C17.9201 23.93 18.2601 23.59 18.6701 23.59C19.0801 23.59 19.4201 23.93 19.4201 24.34C19.4201 25.21 20.0801 25.92 20.8901 25.92H21.2501V22.54L19.7401 22C18.9601 21.73 17.9101 21.15 17.9101 19.36C17.9101 17.82 19.1201 16.58 20.6001 16.58H21.2501V16C21.2501 15.59 21.5901 15.25 22.0001 15.25C22.4101 15.25 22.7501 15.59 22.7501 16V16.58H23.1101C24.7501 16.58 26.0801 17.96 26.0801 19.66C26.0801 20.07 25.7401 20.41 25.3301 20.41C24.9201 20.41 24.5801 20.07 24.5801 19.66C24.5801 18.79 23.9201 18.08 23.1101 18.08H22.7501V21.46L24.2601 22Z" fill="white"/>
<path d="M19.4199 19.37C19.4199 20.24 19.7299 20.41 20.2399 20.59L21.2499 20.94V18.08H20.5999C19.9499 18.08 19.4199 18.66 19.4199 19.37Z" fill="white"/>
</svg>
