<svg width="30" height="30" viewBox="0 0 30 30" fill="none" xmlns="http://www.w3.org/2000/svg">
<g clip-path="url(#clip0_1404_7520)">
<path d="M15 28C22.1797 28 28 22.1797 28 15C28 7.8203 22.1797 2 15 2C7.8203 2 2 7.8203 2 15C2 22.1797 7.8203 28 15 28Z" fill="#F0F0F0"/>
<path d="M4.68677 7.08405C3.66561 8.41264 2.89561 9.94394 2.44727 11.6075H9.21021L4.68677 7.08405Z" fill="#0052B4"/>
<path d="M27.5519 11.6077C27.1036 9.94419 26.3335 8.41288 25.3124 7.08429L20.7891 11.6077H27.5519Z" fill="#0052B4"/>
<path d="M2.44727 18.3911C2.89566 20.0545 3.66566 21.5859 4.68677 22.9144L9.21006 18.3911H2.44727Z" fill="#0052B4"/>
<path d="M22.914 4.68639C21.5854 3.66523 20.0542 2.89524 18.3906 2.44684V9.20974L22.914 4.68639Z" fill="#0052B4"/>
<path d="M7.08398 25.3108C8.41258 26.332 9.94389 27.102 11.6074 27.5504V20.7875L7.08398 25.3108Z" fill="#0052B4"/>
<path d="M11.6073 2.44684C9.94383 2.89524 8.41252 3.66523 7.08398 4.68634L11.6073 9.20968V2.44684Z" fill="#0052B4"/>
<path d="M18.3906 27.5504C20.0541 27.102 21.5854 26.332 22.914 25.3109L18.3906 20.7875V27.5504Z" fill="#0052B4"/>
<path d="M20.7891 18.3911L25.3124 22.9144C26.3335 21.5859 27.1036 20.0545 27.5519 18.3911H20.7891Z" fill="#0052B4"/>
<path d="M27.89 13.3044H16.6957H16.6957V2.11004C16.1406 2.03778 15.5747 2 15 2C14.4252 2 13.8594 2.03778 13.3044 2.11004V13.3043V13.3043H2.11004C2.03778 13.8594 2 14.4253 2 15C2 15.5748 2.03778 16.1406 2.11004 16.6956H13.3043H13.3043V27.89C13.8594 27.9622 14.4252 28 15 28C15.5747 28 16.1406 27.9623 16.6956 27.89V16.6957V16.6957H27.89C27.9622 16.1406 28 15.5748 28 15C28 14.4253 27.9622 13.8594 27.89 13.3044Z" fill="#D80027"/>
<path d="M18.3906 18.3922L24.1917 24.1933C24.4585 23.9265 24.713 23.6477 24.9558 23.3587L19.9893 18.3922H18.3906V18.3922Z" fill="#D80027"/>
<path d="M11.6077 18.3922H11.6076L5.80664 24.1931C6.07334 24.46 6.35218 24.7145 6.64123 24.9573L11.6077 19.9907V18.3922Z" fill="#D80027"/>
<path d="M11.6082 11.6082V11.6081L5.80713 5.80701C5.54032 6.07371 5.2858 6.35255 5.04297 6.6416L10.0095 11.6082H11.6082V11.6082Z" fill="#D80027"/>
<path d="M18.3906 11.6094L24.1917 5.80823C23.925 5.54143 23.6462 5.28691 23.3571 5.04413L18.3906 10.0107V11.6094Z" fill="#D80027"/>
</g>
<rect x="1" y="1" width="28" height="28" rx="14" stroke="white" stroke-width="2"/>
<defs>
<clipPath id="clip0_1404_7520">
<rect x="2" y="2" width="26" height="26" rx="13" fill="white"/>
</clipPath>
</defs>
</svg>
