<svg width="26" height="26" viewBox="0 0 26 26" fill="none" xmlns="http://www.w3.org/2000/svg">
<path opacity="0.2" d="M23.4645 11.31L22.4029 15.8383C21.4929 19.7492 19.6945 21.3308 16.3145 21.0058C15.7729 20.9625 15.1879 20.865 14.5595 20.7133L12.7395 20.28C8.22204 19.2075 6.82454 16.9758 7.88621 12.4475L8.94788 7.90832C9.16454 6.98749 9.42454 6.18582 9.74954 5.52499C11.017 2.90332 13.1729 2.19916 16.7912 3.05499L18.6004 3.47749C23.1395 4.53916 24.5262 6.78165 23.4645 11.31Z" fill="#3669D9"/>
<path d="M16.3159 21.0059C15.6442 21.4609 14.7992 21.84 13.77 22.1759L12.0584 22.7392C7.75752 24.1259 5.49336 22.9667 4.09586 18.6659L2.70919 14.3867C1.32252 10.0859 2.47086 7.81086 6.77169 6.42419L8.48336 5.86086C8.92752 5.72002 9.35002 5.60086 9.75086 5.52502C9.42586 6.18586 9.16586 6.98752 8.94919 7.90836L7.88752 12.4475C6.82586 16.9759 8.22336 19.2075 12.7409 20.28L14.5609 20.7134C15.1892 20.865 15.7742 20.9625 16.3159 21.0059Z" fill="#3669D9"/>
<path d="M18.9485 11.3858C18.8835 11.3858 18.8185 11.375 18.7426 11.3642L13.4885 10.0317C13.0551 9.92334 12.7951 9.47917 12.9035 9.04584C13.0118 8.6125 13.456 8.3525 13.8893 8.46084L19.1435 9.79334C19.5768 9.90167 19.8368 10.3458 19.7285 10.7792C19.6418 11.1367 19.306 11.3858 18.9485 11.3858Z" fill="#3669D9"/>
<path d="M15.7726 15.0475C15.7076 15.0475 15.6426 15.0367 15.5667 15.0258L12.4142 14.2242C11.9809 14.1158 11.7209 13.6717 11.8292 13.2383C11.9376 12.805 12.3817 12.545 12.8151 12.6533L15.9676 13.455C16.4009 13.5633 16.6609 14.0075 16.5526 14.4408C16.4659 14.8092 16.1409 15.0475 15.7726 15.0475Z" fill="#3669D9"/>
</svg>
