<svg width="24" height="24" viewBox="0 0 24 24" fill="none" xmlns="http://www.w3.org/2000/svg">
<path opacity="0.4" d="M20.03 6.82L14.28 2.79C12.71 1.69 10.31 1.75 8.8 2.92L3.79 6.83C2.78 7.61 2 9.21 2 10.47V17.37C2 19.92 4.07 22 6.61 22H17.38C19.92 22 21.99 19.93 21.99 17.38V10.6C22 9.25 21.13 7.59 20.03 6.82Z" fill="#292D32"/>
<path d="M13.3999 8.51001H10.5999C8.67986 8.51001 7.10986 10.07 7.10986 12V14.79C7.10986 16.71 8.67986 18.28 10.5999 18.28H13.3899C15.3099 18.28 16.8799 16.72 16.8799 14.79V12C16.8799 10.08 15.3199 8.51001 13.3999 8.51001ZM15.4899 12V12.7H12.6999V9.91001H13.3999C14.5499 9.91001 15.4899 10.85 15.4899 12ZM10.5999 9.91001H11.2999V12.7H8.50986V12C8.50986 10.85 9.44986 9.91001 10.5999 9.91001ZM8.50986 14.79V14.09H11.2999V16.88H10.5999C9.44986 16.88 8.50986 15.94 8.50986 14.79ZM13.3999 16.88H12.6999V14.09H15.4899V14.79C15.4899 15.94 14.5499 16.88 13.3999 16.88Z" fill="#292D32"/>
</svg>
