<svg width="40" height="40" viewBox="0 0 40 40" fill="none" xmlns="http://www.w3.org/2000/svg">
<path opacity="0.2" d="M29.2167 12.95C29.1001 12.9333 28.9834 12.9333 28.8667 12.95C26.2834 12.8667 24.2334 10.75 24.2334 8.15C24.2334 5.5 26.3834 3.33333 29.0501 3.33333C31.7001 3.33333 33.8667 5.48333 33.8667 8.15C33.8501 10.75 31.8001 12.8667 29.2167 12.95Z" fill="#0F78E4"/>
<path opacity="0.2" d="M34.6501 24.5C32.7834 25.75 30.1668 26.2167 27.7501 25.9C28.3834 24.5333 28.7168 23.0167 28.7334 21.4167C28.7334 19.75 28.3667 18.1667 27.6667 16.7834C30.1334 16.45 32.7501 16.9167 34.6334 18.1667C37.2667 19.9 37.2668 22.75 34.6501 24.5Z" fill="#0F78E4"/>
<path opacity="0.2" d="M10.7332 12.95C10.8499 12.9333 10.9666 12.9333 11.0833 12.95C13.6666 12.8667 15.7166 10.75 15.7166 8.15C15.7166 5.5 13.5666 3.33333 10.8999 3.33333C8.24992 3.33333 6.08325 5.48333 6.08325 8.15C6.09992 10.75 8.14991 12.8667 10.7332 12.95Z" fill="#0F78E4"/>
<path opacity="0.2" d="M10.9166 21.4167C10.9166 23.0333 11.2666 24.5667 11.9 25.95C9.54995 26.2 7.09995 25.7 5.29995 24.5167C2.66662 22.7667 2.66662 19.9166 5.29995 18.1666C7.08329 16.9666 9.59995 16.4833 11.9666 16.75C11.2833 18.15 10.9166 19.7333 10.9166 21.4167Z" fill="#0F78E4"/>
<path d="M20.2 26.45C20.0667 26.4333 19.9167 26.4333 19.7667 26.45C16.7 26.35 14.25 23.8333 14.25 20.7333C14.25 17.5667 16.8 15 19.9833 15C23.15 15 25.7167 17.5667 25.7167 20.7333C25.7167 23.8333 23.2833 26.35 20.2 26.45Z" fill="#0F78E4"/>
<path d="M14.7833 29.9C12.2666 31.5833 12.2666 34.35 14.7833 36.0167C17.6499 37.9333 22.3499 37.9333 25.2166 36.0167C27.7333 34.3333 27.7333 31.5667 25.2166 29.9C22.3666 27.9833 17.6666 27.9833 14.7833 29.9Z" fill="#0F78E4"/>
</svg>
