<svg width="40" height="40" viewBox="0 0 40 40" fill="none" xmlns="http://www.w3.org/2000/svg">
<path opacity="0.2" d="M26.9834 3.33333H13.0334C6.96676 3.33333 3.3501 6.94999 3.3501 13.0167V26.9667C3.3501 33.0333 6.96676 36.65 13.0334 36.65H26.9834C33.0501 36.65 36.6667 33.0333 36.6667 26.9667V13.0167C36.6667 6.94999 33.0501 3.33333 26.9834 3.33333Z" fill="#0F78E4"/>
<path d="M14.6999 26.7C14.3833 26.7 14.0666 26.5833 13.8166 26.3333C13.3333 25.85 13.3333 25.05 13.8166 24.5667L24.7332 13.65C25.2166 13.1667 26.0166 13.1667 26.4999 13.65C26.9832 14.1333 26.9832 14.9333 26.4999 15.4167L15.5833 26.3333C15.3333 26.5833 15.0166 26.7 14.6999 26.7Z" fill="#0F78E4"/>
<path d="M15.3832 12.7667C14.0332 12.7667 12.9165 13.8667 12.9165 15.2334C12.9165 16.5834 14.0165 17.7 15.3832 17.7C16.7332 17.7 17.8498 16.6 17.8498 15.2334C17.8332 13.8667 16.7332 12.7667 15.3832 12.7667Z" fill="#0F78E4"/>
<path d="M26.2835 22.3167C24.9335 22.3167 23.8169 23.4167 23.8169 24.7833C23.8169 26.1333 24.9169 27.25 26.2835 27.25C27.6335 27.25 28.7502 26.15 28.7502 24.7833C28.7502 23.4167 27.6502 22.3167 26.2835 22.3167Z" fill="#0F78E4"/>
</svg>
