<svg width="40" height="40" viewBox="0 0 40 40" fill="none" xmlns="http://www.w3.org/2000/svg">
<path opacity="0.2" d="M36.6668 13.0167V26.9833C36.6668 33.05 33.0502 36.6667 26.9835 36.6667H13.0168C6.95016 36.6667 3.3335 33.05 3.3335 26.9833V13.0167C3.3335 12.1667 3.40016 11.35 3.55016 10.6C4.40016 6.01667 7.7835 3.35 12.9502 3.33333H27.0502C32.2168 3.35 35.6002 6.01667 36.4502 10.6C36.6002 11.35 36.6668 12.1667 36.6668 13.0167Z" fill="#0F78E4"/>
<path d="M36.6668 13.0167V13.1H3.3335V13.0167C3.3335 12.1667 3.40016 11.35 3.55016 10.6H12.9502V3.33333H15.4502V10.6H24.5502V3.33333H27.0502V10.6H36.4502C36.6002 11.35 36.6668 12.1667 36.6668 13.0167Z" fill="#0F78E4"/>
<path d="M24.0667 21.2L20.6 19.2C19.3167 18.4667 18.0834 18.3667 17.1167 18.9167C16.15 19.4667 15.6167 20.6 15.6167 22.0667V26.0667C15.6167 27.5333 16.15 28.6667 17.1167 29.2167C17.5334 29.45 18 29.5667 18.4834 29.5667C19.15 29.5667 19.8667 29.35 20.6 28.9333L24.0667 26.9333C25.35 26.2 26.05 25.1667 26.05 24.05C26.05 22.9333 25.3334 21.95 24.0667 21.2Z" fill="#0F78E4"/>
</svg>
